<svg xmlns="http://www.w3.org/2000/svg" xmlns:xlink="http://www.w3.org/1999/xlink" version="1.1" width="1024px" height="1024px" style="shape-rendering:geometricPrecision; text-rendering:geometricPrecision; image-rendering:optimizeQuality; fill-rule:evenodd; clip-rule:evenodd">
<g><path style="opacity:1" fill="#f9f9f9" d="M -0.5,-0.5 C 340.833,-0.5 682.167,-0.5 1023.5,-0.5C 1023.5,340.833 1023.5,682.167 1023.5,1023.5C 682.167,1023.5 340.833,1023.5 -0.5,1023.5C -0.5,682.167 -0.5,340.833 -0.5,-0.5 Z"/></g>
<g><path style="opacity:1" fill="#031e29" d="M 254.5,235.5 C 313.168,235.333 371.834,235.5 430.5,236C 436.742,236.784 441.742,239.617 445.5,244.5C 442.219,241.852 438.552,239.686 434.5,238C 374.158,238.164 314.158,237.33 254.5,235.5 Z"/></g>
<g><path style="opacity:1" fill="#0f343d" d="M 559.5,501.5 C 537.764,500.828 515.931,500.162 494,499.5C 493.5,440.168 493.333,380.834 493.5,321.5C 503.828,320.833 514.328,320.5 525,320.5C 537.868,320.408 550.702,320.908 563.5,322C 579.649,327.384 589.483,338.551 593,355.5C 597.238,376.32 591.738,393.987 576.5,408.5C 598.785,429.01 603.952,453.343 592,481.5C 584.336,493.093 573.502,499.759 559.5,501.5 Z"/></g>
<g><path style="opacity:1" fill="#10333c" d="M 732.5,319.5 C 753.041,320.586 760.208,330.919 754,350.5C 751.913,354.302 748.746,356.802 744.5,358C 725.393,362.201 715.893,354.701 716,335.5C 718.786,327.211 724.286,321.878 732.5,319.5 Z"/></g>
<g><path style="opacity:1" fill="#f9f9f9" d="M 528.5,350.5 C 533.511,350.334 538.511,350.501 543.5,351C 546.698,351.848 549.531,353.348 552,355.5C 556.32,365.333 556.654,375.333 553,385.5C 551.332,389.165 548.499,391.332 544.5,392C 538.916,392.806 533.416,392.639 528,391.5C 527.186,377.758 527.353,364.092 528.5,350.5 Z"/></g>
<g><path style="opacity:1" fill="#0e353e" d="M 612.5,373.5 C 622.083,373.182 631.583,373.515 641,374.5C 641.168,404.336 641.668,434.003 642.5,463.5C 645.035,474.665 651.368,477.665 661.5,472.5C 662.391,471.89 663.391,471.557 664.5,471.5C 667.051,469.422 668.884,466.756 670,463.5C 670.333,434.167 670.667,404.833 671,375.5C 671.5,375 672,374.5 672.5,374C 681.827,373.5 691.161,373.334 700.5,373.5C 701.161,415.931 701.828,458.264 702.5,500.5C 702.389,501.117 702.056,501.617 701.5,502C 691.833,502.667 682.167,502.667 672.5,502C 670.032,499.772 668.865,496.938 669,493.5C 659.065,501.978 647.565,505.145 634.5,503C 629.617,501.928 624.95,500.261 620.5,498C 618.21,496.223 616.543,494.056 615.5,491.5C 613.707,486.955 612.207,482.288 611,477.5C 610.5,443.502 610.333,409.502 610.5,375.5C 610.5,374.167 611.167,373.5 612.5,373.5 Z"/></g>
<g><path style="opacity:1" fill="#0f353f" d="M 752.5,500.5 C 752.389,501.117 752.056,501.617 751.5,502C 741.658,502.825 731.991,502.658 722.5,501.5C 721.339,459.238 721.173,416.904 722,374.5C 731.422,373.349 740.922,373.182 750.5,374C 751,374.5 751.5,375 752,375.5C 752.5,417.165 752.667,458.832 752.5,500.5 Z"/></g>
<g><path style="opacity:1" fill="#000208" d="M 612.5,373.5 C 622.235,372.171 632.069,372.171 642,373.5C 642.5,403.498 642.667,433.498 642.5,463.5C 641.668,434.003 641.168,404.336 641,374.5C 631.583,373.515 622.083,373.182 612.5,373.5 Z"/></g>
<g><path style="opacity:1" fill="#0f343d" d="M 877.5,320.5 C 886.902,321.178 896.402,321.845 906,322.5C 907.13,381.992 908.297,441.325 909.5,500.5C 909.389,501.117 909.056,501.617 908.5,502C 899.167,502.667 889.833,502.667 880.5,502C 878.115,499.774 876.949,496.941 877,493.5C 859.214,507.614 842.547,506.28 827,489.5C 822.565,483.198 819.898,476.198 819,468.5C 817.414,449.872 817.081,431.205 818,412.5C 818.582,401.016 822.249,390.683 829,381.5C 840.051,370.264 853.218,366.764 868.5,371C 870.609,372.141 872.442,373.641 874,375.5C 874.333,357.5 874.667,339.5 875,321.5C 875.671,320.748 876.504,320.414 877.5,320.5 Z"/></g>
<g><path style="opacity:1" fill="#131b22" d="M 877.5,320.5 C 887.172,320.334 896.839,320.5 906.5,321C 907,321.5 907.5,322 908,322.5C 909.169,381.828 909.669,441.161 909.5,500.5C 908.297,441.325 907.13,381.992 906,322.5C 896.402,321.845 886.902,321.178 877.5,320.5 Z"/></g>
<g><path style="opacity:1" fill="#f9f9f9" d="M 859.5,397.5 C 868.918,396.743 874.418,401.077 876,410.5C 876.667,426.833 876.667,443.167 876,459.5C 874.847,473.645 868.013,477.812 855.5,472C 853.962,470.068 852.795,467.901 852,465.5C 851.333,447.167 851.333,428.833 852,410.5C 852.511,408.122 853.178,405.788 854,403.5C 856.04,401.63 857.873,399.63 859.5,397.5 Z"/></g>
<g><path style="opacity:1" fill="#0f343e" d="M 254.5,235.5 C 314.158,237.33 374.158,238.164 434.5,238C 438.552,239.686 442.219,241.852 445.5,244.5C 450.83,248.997 455.663,253.997 460,259.5C 462.815,264.683 463.148,270.016 461,275.5C 458.065,281.427 454.732,287.094 451,292.5C 423.956,331.421 396.79,370.254 369.5,409C 369.728,409.399 370.062,409.565 370.5,409.5C 392.025,410.094 413.692,410.928 435.5,412C 444.296,418.462 452.129,425.962 459,434.5C 459.973,436.392 460.64,438.392 461,440.5C 461.483,439.552 461.649,438.552 461.5,437.5C 462.922,441.793 462.088,445.793 459,449.5C 366.579,559.25 274.913,669.583 184,780.5C 175.394,789.832 165.228,791.999 153.5,787C 146.429,780.051 139.262,773.218 132,766.5C 128.288,759.802 127.621,752.802 130,745.5C 157.007,675.151 183.174,604.484 208.5,533.5C 187.174,532.667 165.841,532.167 144.5,532C 140.095,531.236 136.095,529.569 132.5,527C 124.635,519.47 117.135,511.636 110,503.5C 107.573,499.46 106.573,495.127 107,490.5C 113.139,476.888 119.806,463.555 127,450.5C 164.523,382.12 201.523,313.454 238,244.5C 242.157,239.005 247.657,236.005 254.5,235.5 Z"/></g>
<g><path style="opacity:1" fill="#f0b24b" d="M 256.5,249.5 C 311.833,250.167 367.167,250.833 422.5,251.5C 384.268,306.286 346.768,361.619 310,417.5C 308.296,420.473 308.796,423.14 311.5,425.5C 345.833,426.179 380.833,426.846 416.5,427.5C 326.008,536.469 235.508,645.469 145,754.5C 144.672,751.793 145.005,749.126 146,746.5C 167.409,688.771 188.909,631.104 210.5,573.5C 216.832,556.172 223.165,538.838 229.5,521.5C 232.699,513.901 235.699,506.234 238.5,498.5C 240.338,494.946 238.671,492.446 233.5,491C 196.835,490.5 160.168,490.333 123.5,490.5C 123.833,489.167 124.167,487.833 124.5,486.5C 166.578,408.01 208.911,329.677 251.5,251.5C 253.05,250.559 254.716,249.893 256.5,249.5 Z"/></g>
<g><path style="opacity:1" fill="#fed04f" d="M 256.5,249.5 C 312.167,249.5 367.833,249.5 423.5,249.5C 425.665,250.062 425.332,250.729 422.5,251.5C 367.167,250.833 311.833,250.167 256.5,249.5 Z"/></g>
<g><path style="opacity:1" fill="#01283e" d="M 423.5,249.5 C 367.833,249.5 312.167,249.5 256.5,249.5C 254.716,249.893 253.05,250.559 251.5,251.5C 250.262,251.19 250.262,250.69 251.5,250C 252.833,249.333 254.167,248.667 255.5,248C 312.167,247.333 368.833,247.333 425.5,248C 424.584,248.278 423.918,248.778 423.5,249.5 Z"/></g>
<g><path style="opacity:1" fill="#0d1920" d="M 370.5,409.5 C 392.553,409.044 414.553,409.544 436.5,411C 446.778,418.108 455.112,426.942 461.5,437.5C 461.649,438.552 461.483,439.552 461,440.5C 460.64,438.392 459.973,436.392 459,434.5C 452.129,425.962 444.296,418.462 435.5,412C 413.692,410.928 392.025,410.094 370.5,409.5 Z"/></g>
<g><path style="opacity:1" fill="#e1ba4d" d="M 416.5,427.5 C 380.833,426.846 345.833,426.179 311.5,425.5C 346.834,424.372 382.167,424.372 417.5,425.5C 417.137,426.183 416.804,426.85 416.5,427.5 Z"/></g>
<g><path style="opacity:1" fill="#f9f9f9" d="M 529.5,423.5 C 536.342,423.039 543.009,423.872 549.5,426C 555.558,428.938 559.058,433.771 560,440.5C 563.697,465.668 553.03,475.668 528,470.5C 527.333,455.5 527.333,440.5 528,425.5C 528.717,424.956 529.217,424.289 529.5,423.5 Z"/></g>
<g><path style="opacity:1" fill="#0f363f" d="M 772.5,321.5 C 772.842,320.662 773.508,320.328 774.5,320.5C 782.99,321.33 791.657,321.83 800.5,322C 801.416,322.374 802.25,322.874 803,323.5C 803.5,382.499 803.667,441.499 803.5,500.5C 793.167,500.5 782.833,500.5 772.5,500.5C 772.507,440.528 772.507,380.861 772.5,321.5 Z"/></g>
<g><path style="opacity:1" fill="#fbfbf5" d="M 702.5,374.5 C 702.158,373.662 701.492,373.328 700.5,373.5C 691.009,372.342 681.342,372.175 671.5,373C 670.299,373.903 669.465,375.069 669,376.5C 668.667,405.5 668.333,434.5 668,463.5C 667.079,466.336 665.912,469.002 664.5,471.5C 663.391,471.557 662.391,471.89 661.5,472.5C 663.912,469.562 665.745,466.229 667,462.5C 667.333,433.5 667.667,404.5 668,375.5C 668.833,373.333 670.333,371.833 672.5,371C 682.6,370.051 692.6,370.385 702.5,372C 703,372.5 703.5,373 704,373.5C 704.667,415.833 704.667,458.167 704,500.5C 703.833,458.331 703.333,416.331 702.5,374.5 Z"/></g>
<g><path style="opacity:1" fill="#081f28" d="M 700.5,373.5 C 691.161,373.334 681.827,373.5 672.5,374C 672,374.5 671.5,375 671,375.5C 670.667,404.833 670.333,434.167 670,463.5C 668.884,466.756 667.051,469.422 664.5,471.5C 665.912,469.002 667.079,466.336 668,463.5C 668.333,434.5 668.667,405.5 669,376.5C 669.465,375.069 670.299,373.903 671.5,373C 681.342,372.175 691.009,372.342 700.5,373.5 Z"/></g>
<g><path style="opacity:1" fill="#02131e" d="M 610.5,375.5 C 610.333,409.502 610.5,443.502 611,477.5C 612.207,482.288 613.707,486.955 615.5,491.5C 614.21,490.942 613.377,489.942 613,488.5C 612,485.5 611,482.5 610,479.5C 609.169,444.664 609.336,409.998 610.5,375.5 Z"/></g>
<g><path style="opacity:1" fill="#000308" d="M 700.5,373.5 C 701.492,373.328 702.158,373.662 702.5,374.5C 702.5,416.5 702.5,458.5 702.5,500.5C 701.828,458.264 701.161,415.931 700.5,373.5 Z"/></g>
<g><path style="opacity:1" fill="#01050b" d="M 752.5,500.5 C 752.667,458.832 752.5,417.165 752,375.5C 751.5,375 751,374.5 750.5,374C 740.922,373.182 731.422,373.349 722,374.5C 721.173,416.904 721.339,459.238 722.5,501.5C 721.167,480.511 720.5,459.177 720.5,437.5C 720.503,415.928 720.836,394.428 721.5,373C 731.5,372.333 741.5,372.333 751.5,373C 752,373.5 752.5,374 753,374.5C 753.831,416.669 753.665,458.669 752.5,500.5 Z"/></g>
<g><path style="opacity:1" fill="#0a151b" d="M 493.5,321.5 C 493.333,380.834 493.5,440.168 494,499.5C 515.931,500.162 537.764,500.828 559.5,501.5C 537.848,502.586 516.182,502.753 494.5,502C 494,501.5 493.5,501 493,500.5C 492.168,440.665 492.335,380.999 493.5,321.5 Z"/></g>
<g><path style="opacity:1" fill="#0c1e26" d="M 774.5,320.5 C 783.839,320.334 793.173,320.5 802.5,321C 803,321.5 803.5,322 804,322.5C 804.833,382.169 804.667,441.836 803.5,501.5C 792.833,502.833 782.167,502.833 771.5,501.5C 770.333,441.836 770.167,382.169 771,322.5C 771.383,321.944 771.883,321.611 772.5,321.5C 772.507,380.861 772.507,440.528 772.5,500.5C 782.833,500.5 793.167,500.5 803.5,500.5C 803.667,441.499 803.5,382.499 803,323.5C 802.25,322.874 801.416,322.374 800.5,322C 791.657,321.83 782.99,321.33 774.5,320.5 Z"/></g>
<g><path style="opacity:1" fill="#fed951" d="M 123.5,490.5 C 160.168,490.333 196.835,490.5 233.5,491C 238.671,492.446 240.338,494.946 238.5,498.5C 238.378,495.708 237.044,493.708 234.5,492.5C 196.803,491.851 159.803,491.185 123.5,490.5 Z"/></g>
<g><path style="opacity:1" fill="#262b3e" d="M 124.5,486.5 C 124.167,487.833 123.833,489.167 123.5,490.5C 159.803,491.185 196.803,491.851 234.5,492.5C 197.004,493.498 159.337,493.832 121.5,493.5C 121.166,490.509 122.166,488.176 124.5,486.5 Z"/></g>
<g><path style="opacity:1" fill="#0f213d" d="M 229.5,521.5 C 223.165,538.838 216.832,556.172 210.5,573.5C 209.903,573.265 209.57,572.765 209.5,572C 215.693,555.139 222.193,537.972 229,520.5C 229.399,520.728 229.565,521.062 229.5,521.5 Z"/></g>
<g><path style="opacity:1" fill="#0e343d" d="M 460.5,654.5 C 460.333,630.498 460.5,606.498 461,582.5C 461.557,573.923 463.224,565.59 466,557.5C 467.299,557.966 468.799,557.966 470.5,557.5C 470.822,559.722 470.155,561.556 468.5,563C 469.449,563.617 470.282,563.451 471,562.5C 471.333,563.167 471.667,563.833 472,564.5C 474.381,563.017 476.881,562.184 479.5,562C 477.606,560.921 477.273,559.587 478.5,558C 475.921,557.568 474.421,558.735 474,561.5C 472.312,560.675 472.145,559.675 473.5,558.5C 471.803,557.636 470.637,556.303 470,554.5C 468.754,555.772 467.587,556.105 466.5,555.5C 471.026,544.644 478.36,536.31 488.5,530.5C 496.655,526.067 505.489,523.734 515,523.5C 551.77,524.677 571.103,543.677 573,580.5C 573.667,603.5 573.667,626.5 573,649.5C 571.658,662.358 567.824,674.358 561.5,685.5C 566.152,692.795 570.819,700.128 575.5,707.5C 569.736,713.765 563.736,719.932 557.5,726C 554.096,729.467 550.929,729.301 548,725.5C 543.581,718.328 538.915,711.328 534,704.5C 515.369,709.996 497.535,708.163 480.5,699C 467.459,687.081 460.792,672.248 460.5,654.5 Z"/></g>
<g><path style="opacity:1" fill="#0f323c" d="M 702.5,525.5 C 721.637,523.14 730.47,531.474 729,550.5C 723.982,561.425 715.482,565.592 703.5,563C 691.171,558.172 687.005,549.338 691,536.5C 693.412,531.252 697.246,527.586 702.5,525.5 Z"/></g>
<g><path style="opacity:1" fill="#f9f9f9" d="M 534.5,652.5 C 534.19,653.738 533.69,653.738 533,652.5C 530.71,648.381 527.876,644.714 524.5,641.5C 518.026,645.304 513.359,650.637 510.5,657.5C 513.318,663.131 516.651,668.465 520.5,673.5C 515.471,676.794 510.138,677.294 504.5,675C 500.289,670.723 497.789,665.556 497,659.5C 496.333,632.167 496.333,604.833 497,577.5C 497.271,571.74 498.771,566.406 501.5,561.5C 505.412,556.631 510.578,554.298 517,554.5C 528.296,555.129 534.296,561.129 535,572.5C 535.815,599.209 535.649,625.876 534.5,652.5 Z"/></g>
<g><path style="opacity:1" fill="#0f343d" d="M 618.5,577.5 C 617.453,578.078 617.62,578.744 619,579.5C 619.168,609.669 619.668,639.669 620.5,669.5C 623.201,677.014 628.535,679.514 636.5,677C 640.092,674.331 642.592,670.831 644,666.5C 644.333,637.5 644.667,608.5 645,579.5C 645.72,577.944 646.887,576.944 648.5,576.5C 657.235,577.179 666.068,577.846 675,578.5C 675.5,620.165 675.667,661.832 675.5,703.5C 666.494,703.666 657.494,703.5 648.5,703C 647.131,701.281 646.131,699.448 645.5,697.5C 645.565,697.062 645.399,696.728 645,696.5C 631.045,709.195 615.878,710.695 599.5,701C 595.633,697.422 592.633,693.255 590.5,688.5C 591.043,688.44 591.376,688.107 591.5,687.5C 590.902,686.205 590.402,684.872 590,683.5C 589.833,648.331 589.333,613.331 588.5,578.5C 588.918,577.778 589.584,577.278 590.5,577C 600.009,576.176 609.343,576.342 618.5,577.5 Z"/></g>
<g><path style="opacity:1" fill="#040b12" d="M 865.5,526.5 C 866.332,556.997 866.832,587.664 867,618.5C 872.512,608.806 878.012,599.139 883.5,589.5C 884.043,589.56 884.376,589.893 884.5,590.5C 879.08,599.672 873.913,609.006 869,618.5C 867.989,619.337 866.822,619.67 865.5,619.5C 865.5,588.5 865.5,557.5 865.5,526.5 Z"/></g>
<g><path style="opacity:1" fill="#00050f" d="M 618.5,577.5 C 619.117,577.611 619.617,577.944 620,578.5C 620.5,608.832 620.667,639.165 620.5,669.5C 619.668,639.669 619.168,609.669 619,579.5C 617.62,578.744 617.453,578.078 618.5,577.5 Z"/></g>
<g><path style="opacity:1" fill="#061521" d="M 534.5,652.5 C 535.649,625.876 535.815,599.209 535,572.5C 534.296,561.129 528.296,555.129 517,554.5C 510.578,554.298 505.412,556.631 501.5,561.5C 500.475,561.103 500.308,560.437 501,559.5C 509.882,552.523 519.382,551.69 529.5,557C 531.956,559.408 533.789,562.241 535,565.5C 536.125,580.623 536.625,595.79 536.5,611C 536.333,624.5 536.167,638 536,651.5C 535.617,652.056 535.117,652.389 534.5,652.5 Z"/></g>
<g><path style="opacity:1" fill="#010309" d="M 588.5,578.5 C 589.333,613.331 589.833,648.331 590,683.5C 590.402,684.872 590.902,686.205 591.5,687.5C 591.376,688.107 591.043,688.44 590.5,688.5C 589.91,687.234 589.41,685.901 589,684.5C 588.5,649.168 588.333,613.835 588.5,578.5 Z"/></g>
<g><path style="opacity:1" fill="#09242e" d="M 488.5,530.5 C 478.36,536.31 471.026,544.644 466.5,555.5C 467.587,556.105 468.754,555.772 470,554.5C 470.637,556.303 471.803,557.636 473.5,558.5C 472.145,559.675 472.312,560.675 474,561.5C 474.421,558.735 475.921,557.568 478.5,558C 477.273,559.587 477.606,560.921 479.5,562C 476.881,562.184 474.381,563.017 472,564.5C 471.667,563.833 471.333,563.167 471,562.5C 470.282,563.451 469.449,563.617 468.5,563C 470.155,561.556 470.822,559.722 470.5,557.5C 468.799,557.966 467.299,557.966 466,557.5C 463.224,565.59 461.557,573.923 461,582.5C 460.5,606.498 460.333,630.498 460.5,654.5C 459.683,652.031 459.183,649.365 459,646.5C 458.333,626.5 458.333,606.5 459,586.5C 459.43,571.109 463.43,556.775 471,543.5C 475.602,537.383 481.436,533.049 488.5,530.5 Z"/></g>
<g><path style="opacity:1" fill="#0f333d" d="M 773.5,605.5 C 771.489,607.667 770.322,610.334 770,613.5C 769.183,633.523 769.35,649.523 770.5,661.5C 771.126,666.501 772.292,671.501 774,676.5C 779.667,681.833 785.333,681.833 791,676.5C 792.704,670.055 793.87,663.555 794.5,657C 804.167,656.333 813.833,656.333 823.5,657C 826.828,672.377 823.161,686.044 812.5,698C 794.468,710.24 775.801,711.24 756.5,701C 746.209,692.585 740.543,681.752 739.5,668.5C 739.008,654.004 738.341,639.67 737.5,625.5C 739.779,584.044 761.113,567.877 801.5,577C 814.17,582.345 821.67,591.845 824,605.5C 824.297,610.691 824.797,615.857 825.5,621C 825.561,622.711 824.894,624.044 823.5,625C 813.816,625.832 804.149,625.665 794.5,624.5C 794.018,618.372 792.851,612.372 791,606.5C 785.535,601.574 779.702,601.24 773.5,605.5 Z"/></g>
<g><path style="opacity:1" fill="#fefefa" d="M 693.5,702.5 C 693.953,703.458 694.619,704.292 695.5,705C 704.833,705.667 714.167,705.667 723.5,705C 724.333,704.167 725.167,703.333 726,702.5C 726.5,661.168 726.667,619.835 726.5,578.5C 727.665,619.998 727.831,661.665 727,703.5C 726.167,704.333 725.333,705.167 724.5,706C 714.5,706.667 704.5,706.667 694.5,706C 693.667,705.167 692.833,704.333 692,703.5C 691.333,661.833 691.333,620.167 692,578.5C 692.167,620.002 692.667,661.335 693.5,702.5 Z"/></g>
<g><path style="opacity:1" fill="#0b1014" d="M 835.5,526.5 C 835.333,585.168 835.5,643.834 836,702.5C 845.667,703.833 855.333,703.833 865,702.5C 865.333,691.5 865.667,680.5 866,669.5C 866.383,668.944 866.883,668.611 867.5,668.5C 866.708,680.121 866.208,691.788 866,703.5C 865.5,704 865,704.5 864.5,705C 855.5,705.667 846.5,705.667 837.5,705C 836.058,704.623 835.058,703.79 834.5,702.5C 834.168,643.664 834.501,584.998 835.5,526.5 Z"/></g>
<g><path style="opacity:1" fill="#020712" d="M 773.5,605.5 C 772.16,609.371 771.327,613.371 771,617.5C 770.5,632.163 770.333,646.83 770.5,661.5C 769.35,649.523 769.183,633.523 770,613.5C 770.322,610.334 771.489,607.667 773.5,605.5 Z"/></g>
<g><path style="opacity:1" fill="#0e353e" d="M 865.5,526.5 C 865.5,557.5 865.5,588.5 865.5,619.5C 866.822,619.67 867.989,619.337 869,618.5C 873.913,609.006 879.08,599.672 884.5,590.5C 884.376,589.893 884.043,589.56 883.5,589.5C 885.782,585.107 888.448,580.941 891.5,577C 902.833,576.333 914.167,576.333 925.5,577C 926.308,577.308 926.975,577.808 927.5,578.5C 918.084,594.334 908.417,610.001 898.5,625.5C 909.382,647.93 919.716,670.597 929.5,693.5C 930.134,696.937 931.467,700.104 933.5,703C 922.167,703.667 910.833,703.667 899.5,703C 895.978,695.11 892.312,687.944 888.5,681.5C 886.445,676.39 884.112,671.39 881.5,666.5C 880.412,662.571 878.746,658.904 876.5,655.5C 873.231,659.725 870.231,664.059 867.5,668.5C 866.883,668.611 866.383,668.944 866,669.5C 865.667,680.5 865.333,691.5 865,702.5C 855.333,703.833 845.667,703.833 836,702.5C 835.5,643.834 835.333,585.168 835.5,526.5C 835.611,525.883 835.944,525.383 836.5,525C 845.5,524.333 854.5,524.333 863.5,525C 864.416,525.278 865.082,525.778 865.5,526.5 Z"/></g>
<g><path style="opacity:1" fill="#020610" d="M 737.5,625.5 C 738.341,639.67 739.008,654.004 739.5,668.5C 738.683,666.031 738.183,663.365 738,660.5C 737.5,648.838 737.333,637.171 737.5,625.5 Z"/></g>
<g><path style="opacity:1" fill="#172126" d="M 726.5,578.5 C 726.667,619.835 726.5,661.168 726,702.5C 725.167,703.333 724.333,704.167 723.5,705C 714.167,705.667 704.833,705.667 695.5,705C 694.619,704.292 693.953,703.458 693.5,702.5C 693.333,661.165 693.5,619.832 694,578.5C 694.5,578 695,577.5 695.5,577C 704.833,576.333 714.167,576.333 723.5,577C 724.527,577.513 725.527,578.013 726.5,578.5 Z"/></g>
<g><path style="opacity:1" fill="#0f353f" d="M 696.5,577.5 C 705.554,577.194 714.554,577.528 723.5,578.5C 724.83,620.067 724.83,661.567 723.5,703C 713.922,703.818 704.422,703.651 695,702.5C 694.333,661.5 694.333,620.5 695,579.5C 695.717,578.956 696.217,578.289 696.5,577.5 Z"/></g>
<g><path style="opacity:1" fill="#07232f" d="M 648.5,576.5 C 657.506,576.334 666.506,576.5 675.5,577C 676,577.5 676.5,578 677,578.5C 677.667,620.167 677.667,661.833 677,703.5C 676.5,704 676,704.5 675.5,705C 666.5,705.667 657.5,705.667 648.5,705C 645.959,703.152 644.959,700.652 645.5,697.5C 646.131,699.448 647.131,701.281 648.5,703C 657.494,703.5 666.494,703.666 675.5,703.5C 675.667,661.832 675.5,620.165 675,578.5C 666.068,577.846 657.235,577.179 648.5,576.5 Z"/></g>
<g><path style="opacity:1" fill="#152329" d="M 929.5,693.5 C 931.226,695.942 932.726,698.609 934,701.5C 934.684,702.784 934.517,703.951 933.5,705C 922.167,705.667 910.833,705.667 899.5,705C 894.977,697.612 891.31,689.779 888.5,681.5C 892.312,687.944 895.978,695.11 899.5,703C 910.833,703.667 922.167,703.667 933.5,703C 931.467,700.104 930.134,696.937 929.5,693.5 Z"/></g>
<g><path style="opacity:1" fill="#f5f5f1" d="M 834.5,702.5 C 835.058,703.79 836.058,704.623 837.5,705C 846.5,705.667 855.5,705.667 864.5,705C 865,704.5 865.5,704 866,703.5C 866.208,691.788 866.708,680.121 867.5,668.5C 870.231,664.059 873.231,659.725 876.5,655.5C 878.746,658.904 880.412,662.571 881.5,666.5C 879.611,664.574 877.778,661.907 876,658.5C 873.268,662.241 870.934,666.241 869,670.5C 868.667,681.5 868.333,692.5 868,703.5C 867.167,704.333 866.333,705.167 865.5,706C 855.833,706.667 846.167,706.667 836.5,706C 835.069,705.535 833.903,704.701 833,703.5C 832.333,644.5 832.333,585.5 833,526.5C 833.167,585.335 833.667,644.001 834.5,702.5 Z"/></g>
</svg>
